HIERARCHY
ROOT Hips
{
    OFFSET 0.0 0.0 0.0
    CHANNELS 6 Xposition Yposition Zposition Zrotation Xrotation Yrotation
    JOINT Spine
    {
        OFFSET 0.0 25.335010047670025 0.0
        CHANNELS 3 Zrotation Xrotation Yrotation
        JOINT LeftUpperArm
        {
            OFFSET 16.372229540129258 25.524455400237052 0.0
            CHANNELS 3 Zrotation Xrotation Yrotation
            JOINT LeftLowerArm
            {
                OFFSET 31.828304997414094 0.0 0.0
                CHANNELS 3 Zrotation Xrotation Yrotation
                End Site
                {
                OFFSET 6.934956540289116 0.0 0.0
                }
            }
        }
        JOINT RightUpperArm
        {
            OFFSET -16.372229540129258 25.524455400237052 0.0
            CHANNELS 3 Zrotation Xrotation Yrotation
            JOINT RightLowerArm
            {
                OFFSET -31.828304997414094 0.0 0.0
                CHANNELS 3 Zrotation Xrotation Yrotation
                End Site
                {
                OFFSET 6.934956540289116 0.0 0.0
                }
            }
        }
    }
    JOINT LeftUpperLeg
    {
        OFFSET 8.996378831507265 0.0 0.0
        CHANNELS 3 Zrotation Xrotation Yrotation
    }
    JOINT RightUpperLeg
    {
        OFFSET -8.996378831507265 0.0 0.0
        CHANNELS 3 Zrotation Xrotation Yrotation
    }
}
MOTION
Frames: 21
Frame Time: 0.03333333333333333
-0.13673777226311123 -0.19259780941782867 -0.08224393816044466 -0.5687122849952168 14.84653771730069 13.941818029473474 -0.0 -0.0 -0.0 179.29909587933392 28.877645084328627 168.94897981187682 -173.53969923774676 37.36270994402121 176.0689909486066 22.091924641509 6.455471944053854 -176.87581755359275 -73.35370736927837 67.26352425238986 72.03810499650496 111.12028055275731 -6.479177084383125 80.63732732607578 103.19065395894121 -6.252169891896787 112.20431787710018
-0.13983023739100225 -0.19012023597572159 -0.08198114798489492 -0.6378992323732828 14.74180337234581 13.990808675862816 -0.0 -0.0 -0.0 178.9197256050287 35.32805974893824 168.71544884963018 -173.9491707009555 29.466045506772748 177.015138908896 22.24284235333564 6.266287220537237 -176.74910361424438 -73.42293398219242 67.00827349820862 72.08061607134435 108.41861480083304 -5.030223596213279 83.20466790411355 103.44573285494766 -5.161395415677662 116.81322146886103
-0.14233766838732873 -0.18652764938306254 -0.08233086902200494 -0.7613439352395047 14.6594027739 14.118131009757942 -0.0 -0.0 -0.0 178.3944360206759 39.92321311483941 168.86575438791243 -174.6323942298668 24.303470795997544 177.7854746816392 22.295459217894148 7.765001589180584 -177.06215866990087 -64.71865001159355 65.37764325470917 62.54634049280238 106.84248645794845 -3.909189019270533 84.69023941327397 103.37955216439083 -4.494089651046349 118.76744721227469
-0.14403050172340012 -0.18283023234101523 -0.08239443126233756 -0.8529890603019785 14.7907779695214 14.167644678705669 -0.0 -0.0 -0.0 178.00884182996646 42.48886880394797 168.94353863420233 -174.88784189393937 22.281852609111393 178.0572430892691 22.97935025950509 9.618850431337151 -177.56266361937858 -60.5554102251895 63.11429794991236 57.669971865776944 106.92710228673465 -2.731599787890029 85.35094205787784 103.28829120324646 -4.093500662584496 118.8870096265318
-0.146013622775167 -0.1800415941345572 -0.08244048999420506 -0.949150713755899 14.671747838016126 14.216416236391147 -0.0 -0.0 -0.0 177.27043073304685 44.87747377442686 169.28589573647497 -175.1989396785946 19.61522042178102 178.38492040161577 23.32713984860393 10.080720142535649 -177.70684540904082 -58.57708096010547 61.90616951896674 55.29547508504077 106.3593286524464 -1.5287923318452474 85.51344056019663 102.9580570437867 -3.7285926202956685 119.18973697969898
-0.14728119357149427 -0.17772255011199045 -0.08401636320528963 -1.0141642275710947 14.620791478718342 14.188603280105477 -0.0 -0.0 -0.0 177.17708968433476 47.3617251436378 169.44285614174265 -175.14916090462953 16.872464504761272 178.58899288947444 23.803022667831282 10.780645737255727 -177.89829236696573 -53.19036150417265 59.27807934386541 48.959417996145774 106.32341042510186 -0.5746601199734426 84.37637491341532 102.6963413512838 -3.585799347773258 118.98821702411576
-0.14897776152422934 -0.17599640887333423 -0.08740711041989067 -1.0504597374405527 14.588103742673272 13.705705183699477 -0.0 -0.0 -0.0 177.52863330573487 51.92403974315105 169.3616185869126 -174.8334727591687 12.098647197446905 178.91430462301665 24.135793637987646 11.899818864726933 -178.03890299760326 -50.0084030317564 56.84999330308366 44.945032932415074 106.68280742601485 -0.05983456606120556 82.93899679711055 102.46935232800695 -3.422469526354582 119.40863003821443
-0.1510234281863567 -0.1749632169502817 -0.08706203879069466 -1.081403175310759 14.732835292858695 13.592885895132971 -0.0 -0.0 -0.0 179.0459831125506 51.58985087861901 168.0615450091089 -174.8815555028235 14.12565123215084 178.74771357469277 24.373890233425332 12.99799196200637 -178.4415243267644 -52.39517239960443 57.361401903731014 47.551626661601894 109.36117800150058 0.42373478398976333 81.44939459176827 103.14904025879248 -2.8860483489874262 118.55683177807097
-0.15143487757540533 -0.17381083865145938 -0.08794144339965285 -1.1164756716523496 14.939127786838538 13.521692914126067 -0.0 -0.0 -0.0 -179.65419198037208 45.586864396085524 167.09396263238932 -174.65022397964836 19.833485436240682 178.18020545757392 24.298344952012183 13.594751269638879 -178.50581508599345 -52.156065184394464 57.14690994083751 47.23672716005805 109.47576452933603 0.5267106905622219 81.28857146738811 103.25040786585059 -2.772572164305061 118.29590541028335
-0.15153023660257126 -0.1732878669606196 -0.08886483803697258 -1.1306031966064696 15.133801132978322 13.457499085767486 -0.0 -0.0 -0.0 -178.88840206185 42.22428235403734 166.86458107024453 -174.50921796572436 23.03837586972899 177.84560930585445 24.201312522823898 14.175128629551926 -178.53885105973933 -51.38509004307823 56.799005528148754 46.332393152536845 109.62086707568234 0.42160072573246893 81.03515529450476 103.38877290486603 -2.680717922482479 118.18862111858023
-0.1511590897125555 -0.1726530082956834 -0.08981564834963822 -1.1429676618744795 15.390993099468684 13.422678459486066 -0.0 -0.0 -0.0 -178.78883419474107 42.80352404407956 166.95698269570946 -174.8168594233219 22.699719846436484 177.99516263317818 24.182566997995178 14.393384137140956 -178.53922209261634 -52.46729938842152 57.049476319041034 47.52586120375635 109.83121618865768 0.32063910095201464 80.44361599584964 103.56074144675173 -2.643372405290031 117.79104554710496
-0.15041776233414286 -0.17244808109876658 -0.08998847276858175 -1.1506955945784947 15.280813421422273 13.388866214779728 -0.0 -0.0 -0.0 -178.37871048383334 39.4563931223764 166.97221816915484 -174.89182892541893 25.490769068008813 177.7968617733202 24.098926616859526 14.255317778440514 -178.30218085256897 -52.467119280242926 57.031994636060084 47.52002994795774 109.24851029079097 0.31438719022994166 79.99475644607797 103.43696273841167 -2.726562272107472 117.5527089524947
-0.15075427834693128 -0.17313972303075215 -0.08841099078014315 -1.148679623888622 14.728884697759591 13.282200535674958 -0.0 -0.0 -0.0 -177.91589053813902 31.38994921174302 167.28369318462413 -174.98374737816627 33.67381871512512 177.21373769692286 23.836563273050686 13.657706205208322 -178.1302329782716 -53.85460046387156 57.82072965122544 49.20596501841245 108.81868321507466 0.46124794010941267 79.9886202737453 102.96335260285518 -2.9948336658155545 117.38654571206133
-0.15131074383476545 -0.173978917576615 -0.08660750859573957 -1.1441845286027785 14.168245193824724 13.260555978285767 -0.0 -0.0 -0.0 -177.1069421242342 27.84826439878136 167.15381348155657 -174.31480964967187 37.824035940140654 176.50647124137996 23.19819519623938 13.931688151773685 -178.3257097839768 -63.10396750723845 61.88143356863754 60.09588769928568 109.4798354819596 0.5810102513098878 79.87450821770808 102.96711992746738 -3.095463733412612 116.25892942235741
-0.15123044080961545 -0.1746043056247148 -0.0858851380236 -1.1260045522443471 13.952896250836147 13.234397367513855 -0.0 -0.0 -0.0 -177.10559872312731 26.21228890861357 167.28693295069462 -174.0674641949106 39.13456629892909 176.24765177357042 22.58700702417488 12.973348372730031 -178.05920749834942 -65.64628480930492 62.99081343485051 63.066767524449915 109.18276338646693 0.6211848208128323 79.66935734990423 102.75332041134607 -3.2288070854491058 116.2417485322563
-0.15122004933869335 -0.1748493018991203 -0.08600833163980187 -1.1114169282665962 13.918393867820864 13.195231488445254 -0.0 -0.0 -0.0 -177.15632069175484 26.490176971684203 167.30088551253618 -173.9573804825521 38.9994542978651 176.1887706049376 22.064590024141513 11.987170955008436 -177.7598337451224 -68.57950916888906 63.78614311477985 66.38110156633597 108.90463319031673 0.605178358172445 79.5145816650854 102.67504041044766 -3.380814804407118 115.6727670089137
-0.1511699932183749 -0.17505021116580052 -0.08654442441765962 -1.0947950955118908 14.049235880730725 13.184779619597583 -0.0 -0.0 -0.0 -177.21614484285868 25.55454724898123 167.2698933237883 -173.83408423637883 39.60445515285381 176.06030426915112 21.574504994998012 11.483261335239947 -177.58392227427987 -72.89625646952717 64.97615694383734 71.24311832101202 108.96429743253778 0.6252107079667428 79.58527184499515 102.79485072085033 -3.3529378354999655 115.69072362349438
-0.1511122608716838 -0.17486904825975805 -0.08695948752834197 -1.0816796401796869 14.131535059202108 13.171155381430598 -0.0 -0.0 -0.0 -177.2782520536629 24.453010092501827 167.40836743498028 -173.6807897126232 40.59487936160342 175.8784194439045 20.988994077357994 11.095517632636327 -177.3573154441265 -80.31224213303604 66.35471234882952 79.44352325025403 108.85119046703974 0.6875355664948603 79.67208826478335 102.85675299328132 -3.3277484172793064 115.71061782499523
-0.15087997864310276 -0.17477789304277697 -0.08795255332499534 -1.0511136571736226 14.258017712292803 13.093980075520731 -0.0 -0.0 -0.0 -177.1694687706695 24.01884676782315 167.5938283840863 -173.35555784452467 40.76058945845983 175.65066646389826 20.635700207022108 10.713877391483466 -177.14489403756457 -85.27902385726286 66.96644048989549 84.87213646725057 108.61392935193815 0.6808605901615895 79.93196605950604 102.9675697920888 -3.296511232481671 115.71862390554463
-0.15032695651276803 -0.1745065250761171 -0.08926936819648501 -1.024313632580743 14.48792873470265 13.062196756449216 -0.0 -0.0 -0.0 -177.20983573569055 25.06916149327035 167.87107940936417 -173.63899570659632 39.59221360878771 175.9360996530228 20.409992062295665 9.32143257864744 -176.555489488628 -86.15642097830678 67.1776459544501 85.83106235102177 107.89388655125714 0.5878683949015686 80.1006575991974 103.0804844939536 -3.270299468551618 115.89893144720624
-0.1501340898668294 -0.1743668916421305 -0.08996897743538657 -1.0111369731612894 14.682807698016013 13.052180845312884 -0.0 -0.0 -0.0 -177.35425176284969 26.14852179475375 168.08028892121052 -174.05334019860663 38.55814546994307 176.285243116253 20.15624788955864 8.447676322478989 -176.24076361721967 -92.6819089367823 67.50323229029182 92.90244610755259 107.76703582386513 0.5482855709141237 80.2305521497398 103.25048638293312 -3.2115485851580865 115.87117372192021
